<?xml version="1.0" ?>
<!-- Uploaded to: SVG Repo, www.svgrepo.com, Generator: SVG Repo Mixer Tools -->
<svg width="800px" height="800px" viewBox="0 0 512 512" id="Layer_1" version="1.1" xml:space="preserve" xmlns="http://www.w3.org/2000/svg" xmlns:xlink="http://www.w3.org/1999/xlink">
<style type="text/css">
	.st0{fill:#2B79C2;}
	.st1{fill:#3B4652;}
	.st2{fill:#333333;}
</style>
<g>
<path class="st1" d="M434,195.6c0-0.1,0-0.2,0-0.3v-0.1c0-2.8-1.4-5.3-3.8-6.8l-170-105.9c0,0-0.1,0-0.1-0.1   c-0.3-0.2-0.5-0.3-0.8-0.4c0,0-0.1,0-0.1-0.1c-0.3-0.1-0.6-0.2-1-0.3c-0.1,0-0.1,0-0.2,0c-0.3-0.1-0.5-0.1-0.8-0.2   c-0.1,0-0.2,0-0.2,0c-0.3,0-0.7-0.1-1-0.1s-0.7,0-1,0.1c-0.1,0-0.2,0-0.2,0c-0.3,0-0.5,0.1-0.8,0.2c-0.1,0-0.1,0-0.2,0   c-0.3,0.1-0.6,0.2-1,0.3c0,0-0.1,0-0.1,0.1c-0.3,0.1-0.5,0.3-0.8,0.4c0,0-0.1,0-0.1,0.1l-170,105.9c-2.3,1.5-3.8,4-3.8,6.8v0.1   c0,0.1,0,0.2,0,0.3c0.1,2.3,0,5.8-0.1,10.2c-0.4,25.5-1.4,78.7,20.1,133.1c26.8,67.9,79.1,114.6,155.6,138.8   c0.4,0.1,0.7,0.2,1.1,0.3c0.1,0,0.2,0,0.2,0c0.4,0,0.7,0.1,1.1,0.1s0.7,0,1.1-0.1c0.1,0,0.2,0,0.2,0c0.4-0.1,0.7-0.1,1.1-0.3   c76.4-24.2,128.7-70.9,155.5-138.8c21.5-54.4,20.6-107.6,20.1-133.1C434,201.4,434,197.9,434,195.6z M248,459   C146.7,422.9,111.6,348.9,99.7,287.7H248V459z M415,271.7H264v-168l154,95.9c0,1.9,0.1,4,0.1,6.4   C418.4,220.8,418.8,244.4,415,271.7z"/>
<path class="st0" d="M494,185.1l-89.7-57.6V65c0-5.3-4.3-9.7-9.7-9.7H364c-5.3,0-9.7,4.3-9.7,9.7v30.5l-94-60.3   c-2.5-1.6-5.6-1.7-8.2-0.3c-0.3,0.2-0.7,0.4-1,0.6L18,185.2c-3.7,2.4-4.8,7.3-2.4,11.1c1.5,2.4,4.1,3.7,6.7,3.7   c1.5,0,3-0.4,4.3-1.3L256,51.4l229.3,147.2c3.7,2.4,8.7,1.3,11.1-2.4S497.7,187.5,494,185.1z"/>
</g>
</svg>